@startuml


class CodeServerGtieaExtenstionView {
  + showPullRequestFileChanged(): void
  + showFileDetails(): void
}

class CodeServerGiteaExtension {
  + getPullRequestFileChanged(): void
  + getFileDetails(): void
}

class GitTeaServer {
  + getPullRequestFileChanged(): void
  + getFileDetails(): void
}

CodeServerGtieaExtenstionView "1" -- "1" CodeServerGiteaExtension 
CodeServerGiteaExtension "1" -- "1" GitTeaServer 

@enduml
